<svg class="curtain-svg--mobile" width="40" height="256" viewBox="0 0 40 256" xmlns="http://www.w3.org/2000/svg">
  <g class="curtain-svg__line">
    <rect x="18" width="4" height="256" rx="2" />
  </g>
  <rect x="1" y="109" width="38" height="38" rx="19" fill="#ffffff" />
  <g class="curtain-svg__triangles">
    <path d="M16 119L8 128L16 137V119Z" />
    <path d="M32 128L24 119V137L32 128Z" />
  </g>
  <g class="curtain-svg__stroke">
    <rect x="1" y="109" width="38" height="38" rx="19" fill="none" stroke-width="2" />
  </g>
</svg>

<svg class="curtain-svg--deskop" width="40" height="512" viewBox="0 0 40 512" fill="none" xmlns="http://www.w3.org/2000/svg">
  <g class="curtain-svg__line">
    <rect x="18" width="4" height="512" rx="2" fill="#666666" />
  </g>
  <rect x="1" y="237" width="38" height="38" rx="19" fill="white" />
  <g class="curtain-svg__triangles">
    <path d="M16 247L8 256L16 265V247Z" fill="#666666" />
    <path d="M32 256L24 247V265L32 256Z" fill="#666666" />
  </g>
  <g class="curtain-svg__stroke">
    <rect x="1" y="237" width="38" height="38" rx="19" stroke="#666666" stroke-width="2" />
  </g>
</svg>
